<svg width="993" height="269" viewBox="0 0 993 269" fill="none" xmlns="http://www.w3.org/2000/svg">
<path fill-rule="evenodd" clip-rule="evenodd" d="M325.842 0C314.807 0 305.86 8.94627 305.86 19.982C305.86 31.0178 314.807 39.9641 325.842 39.9641H441.522C442.435 40.2985 443.662 40.6127 445.286 40.8863C450.436 41.7538 451.595 42.3549 452.221 42.7308C452.32 42.7904 452.409 42.8338 452.496 42.8768C452.835 43.0434 453.161 43.2034 454.046 44.2679C457.059 47.8935 457.044 48.467 456.985 50.7442C456.976 51.0997 456.966 51.4967 456.966 51.9533C456.966 54.6586 452.708 56.7695 450.031 57.7942C448.701 58.2014 444.611 58.4063 443.125 58.409H223.646C212.61 58.409 203.664 67.3553 203.664 78.3911C203.664 89.4268 212.61 98.3731 223.646 98.3731H259.116C260.281 98.4842 261.563 98.5908 262.973 98.6919C275.095 99.5613 277.823 100.164 279.297 100.54C279.53 100.6 279.739 100.644 279.945 100.687C280.743 100.854 281.51 101.014 283.593 102.081C290.686 105.714 290.651 106.289 290.512 108.571C290.49 108.928 290.466 109.325 290.466 109.783C290.466 112.494 280.443 114.61 274.142 115.637C271.886 115.931 266.254 116.12 261.975 116.203H103.199C92.1636 116.203 83.2173 125.149 83.2173 136.185C83.2173 147.221 92.1636 156.167 103.199 156.167H612.335C618.611 156.879 620.227 157.387 621.15 157.72C621.27 157.763 621.381 157.798 621.488 157.83C621.529 157.842 621.569 157.854 621.61 157.866C622.176 158.033 622.721 158.193 624.199 159.26C629.232 162.894 629.208 163.469 629.109 165.751C629.094 166.107 629.077 166.505 629.077 166.962C629.077 169.182 624.309 171.002 620.127 172.153H514.177C503.141 172.153 494.195 181.099 494.195 192.135C494.195 203.171 503.141 212.117 514.177 212.117H756.344C762.429 212.829 763.996 213.337 764.891 213.67C765.052 213.729 765.195 213.773 765.337 213.816C765.886 213.983 766.414 214.143 767.847 215.21C772.728 218.843 772.704 219.418 772.609 221.7C772.594 222.057 772.577 222.455 772.577 222.912C772.577 225.581 765.891 227.673 761.546 228.717H371.831C360.795 228.717 351.849 237.664 351.849 248.7C351.849 259.735 360.795 268.682 371.831 268.682H972.787C983.823 268.682 992.769 259.735 992.769 248.7C992.769 237.664 983.823 228.717 972.787 228.717H819.828L816.922 228.15C816.922 228.15 807.825 226.077 806.87 222.912L806.812 222.719C805.855 219.55 805.757 219.226 808.053 216.75C809.625 215.055 813.242 213.7 820.718 212.117H842.851C853.887 212.117 862.833 203.171 862.833 192.135C862.833 181.099 853.887 172.153 842.851 172.153H674.603C673.229 171.829 665.34 169.851 664.441 166.962L664.381 166.77C663.395 163.601 663.294 163.276 665.661 160.801C667.282 159.106 671.012 157.751 678.722 156.167H778.613C789.649 156.167 798.595 147.221 798.595 136.185C798.595 125.149 789.649 116.203 778.613 116.203H368.263L361.778 115.945L354.904 115.021C354.904 115.021 341.685 112.948 340.298 109.783L340.214 109.591C338.823 106.421 338.681 106.097 342.017 103.621C344.591 101.711 350.938 100.233 364.832 98.3731H544.29C555.326 98.3731 564.272 89.4268 564.272 78.3911C564.272 67.3553 555.326 58.409 544.29 58.409H490.544L487.26 58.1016L484.34 57.1794C484.34 57.1794 478.724 55.1117 478.135 51.9533L478.099 51.7612C477.508 48.5988 477.448 48.2751 478.865 45.805C480.074 43.697 483.245 42.116 490.545 39.9641L707.075 39.9641C718.111 39.9641 727.057 31.0178 727.057 19.982C727.057 8.94627 718.111 0 707.075 0H325.842ZM861.646 116.203C850.61 116.203 841.664 125.149 841.664 136.185C841.664 147.221 850.61 156.167 861.646 156.167H914.389C925.424 156.167 934.371 147.221 934.371 136.185C934.371 125.149 925.424 116.203 914.389 116.203H861.646ZM210.963 192.135C210.963 181.099 219.91 172.153 230.945 172.153H347.196C358.232 172.153 367.178 181.099 367.178 192.135C367.178 203.171 358.232 212.117 347.196 212.117H230.945C219.91 212.117 210.963 203.171 210.963 192.135ZM23.7243 159.241C36.8268 159.241 47.4485 150.295 47.4485 139.259C47.4485 128.224 36.8268 119.277 23.7243 119.277C10.6217 119.277 0 128.224 0 139.259C0 150.295 10.6217 159.241 23.7243 159.241Z" fill="#072142"/>
</svg>
